<?xml version="1.0" encoding="UTF-8" standalone="no"?>
<!-- Generator: Adobe Illustrator 16.0.4, SVG Export Plug-In . SVG Version: 6.00 Build 0)  -->

<svg
   xmlns:dc="http://purl.org/dc/elements/1.1/"
   xmlns:cc="http://creativecommons.org/ns#"
   xmlns:rdf="http://www.w3.org/1999/02/22-rdf-syntax-ns#"
   xmlns:svg="http://www.w3.org/2000/svg"
   xmlns="http://www.w3.org/2000/svg"
   xmlns:sodipodi="http://sodipodi.sourceforge.net/DTD/sodipodi-0.dtd"
   xmlns:inkscape="http://www.inkscape.org/namespaces/inkscape"
   version="1.1"
   id="svg11003"
   sodipodi:docname="CabbageRack.svg"
   inkscape:version="0.92.3 (2405546, 2018-03-11)"
   x="0px"
   y="0px"
   width="120"
   height="380"
   viewBox="0 0 120 380"
   enable-background="new 0 0 311.613 380"
   xml:space="preserve"><metadata
   id="metadata11"><rdf:RDF><cc:Work
       rdf:about=""><dc:format>image/svg+xml</dc:format><dc:type
         rdf:resource="http://purl.org/dc/dcmitype/StillImage" /><dc:title></dc:title></cc:Work></rdf:RDF></metadata><defs
   id="defs9" />
<sodipodi:namedview
   units="px"
   fit-margin-left="0"
   fit-margin-top="0"
   showgrid="false"
   inkscape:cy="361.33377"
   inkscape:cx="81.601507"
   inkscape:zoom="0.49497475"
   borderopacity="1.0"
   bordercolor="#666666"
   pagecolor="#ffffff"
   id="base"
   inkscape:window-maximized="0"
   inkscape:window-y="0"
   inkscape:window-x="0"
   inkscape:window-height="810"
   inkscape:window-width="1440"
   inkscape:current-layer="svg11003"
   inkscape:document-units="mm"
   inkscape:pageopacity="0.0"
   fit-margin-right="0"
   fit-margin-bottom="0"
   inkscape:pageshadow="2">
	</sodipodi:namedview>
<rect
   stroke-miterlimit="10"
   width="119.38173"
   height="380.38071"
   id="rect3"
   x="0.30963394"
   y="-0.69034076"
   style="fill:#505050;stroke:#000000;stroke-width:0.61926788;stroke-miterlimit:10" />
<sodipodi:namedview
   gridtolerance="10"
   guidetolerance="10"
   objecttolerance="10"
   showgrid="false"
   inkscape:cy="105.04866"
   inkscape:cx="-236.72085"
   inkscape:zoom="0.536391"
   borderopacity="1"
   bordercolor="#666666"
   pagecolor="#ffffff"
   id="namedview5"
   inkscape:window-maximized="1"
   inkscape:window-y="0"
   inkscape:window-x="0"
   inkscape:window-height="744"
   inkscape:window-width="1366"
   inkscape:current-layer="svg2"
   inkscape:pageopacity="0"
   inkscape:pageshadow="2">
	</sodipodi:namedview>
<path
   id="Selection__x23_1"
   inkscape:export-ydpi="90"
   inkscape:export-xdpi="90"
   inkscape:export-filename="/home/rory/sourcecode/cabbageaudio/cabbage/Images/CabbageLogo3.png"
   inkscape:connector-curvature="0"
   d="m 69.458611,147.87744 c 16.06406,3.08028 26.79332,14.2597 32.663099,28.38566 l 3.13527,9.13832 2.39572,3.42699 c 1.70511,2.76527 1.77314,4.14324 1.73726,7.2347 -0.0839,6.49935 -5.59856,11.28986 -12.378439,11.02657 -9.91469,-0.38026 -14.36269,-11.76099 -8.86851,-19.02225 2.61567,-3.46147 6.19738,-4.55798 10.46597,-4.56916 l -3.71778,-9.89978 c -4.07287,-8.47986 -10.23436,-14.84966 -18.64386,-19.5712 -4.03279,-2.26198 -8.99992,-3.7737 -13.57654,-4.64559 -2.15246,-0.41148 -5.55056,-0.23626 -6.78826,-2.05601 5.38187,-0.41521 8.1653,-0.4879 13.57607,0.55175 z m -41.11687,14.29745 c -2.32815,2.35704 -4.33663,5.09481 -5.85393,7.99568 -1.94883,3.72383 -3.64974,9.55354 -4.07287,13.70749 l -0.39564,5.33108 c -0.0401,1.35513 0.3989,2.07511 0,3.42699 -2.72752,-6.36654 -3.76158,-12.43577 0,-18.65784 1.70511,-2.56628 2.95073,-3.64368 5.11905,-5.71134 -2.39992,0.76518 -3.9573,1.27918 -5.9737,2.86359 -5.42241,4.25694 -7.00776,12.37472 -4.47596,18.45932 2.02851,4.89304 4.44008,5.11765 6.05758,8.37734 -8.9286304,-4.97318 -10.4179704,-18.04085 -4.18471,-25.51181 1.25355,-1.5038 2.79928,-2.68045 4.58407,-3.56726 1.23025,-0.61326 2.80721,-0.92175 3.74154,-1.87706 l 3.14226,-4.45499 c 2.65529,-3.31655 3.29418,-3.4652 6.29338,-6.09253 -0.10812,2.1287 -2.52015,4.23364 -3.98107,5.71134 z m 76.639359,48.31149 c -7.354929,5.77611 -18.372179,4.32125 -23.970269,-3.00059 -3.21822,-4.20335 -4.14091,-9.835 -2.96285,-14.8492 1.22186,-5.19361 4.62415,-9.96455 9.77908,-12.2228 1.32997,-0.5825 5.64609,-2.05601 6.89219,-1.10769 0.61093,0.46414 0.61093,1.24097 0.69481,1.90735 -2.32023,0.19805 -4.02534,0.79221 -5.99001,1.99916 -4.35294,2.6688 -7.55531,7.43648 -7.55531,12.47024 0,7.61077 7.81068,15.34083 15.94057,14.78116 6.001659,-0.41521 7.551119,-2.63478 11.979079,-5.64283 -1.32904,2.35565 -2.62313,3.95124 -4.80729,5.6652 z m 5.20712,-6.42758 -0.39936,0.38026 v -0.38026 z"
   style="fill:#ffffff;stroke:#ffffff;stroke-width:0.61023128" />
<path
   id="Selection__x23_1-1"
   inkscape:export-ydpi="90"
   inkscape:export-xdpi="90"
   inkscape:export-filename="/home/rory/sourcecode/cabbageaudio/cabbage/Images/CabbageLogo3.png"
   inkscape:connector-curvature="0"
   d="m 65.695161,228.83945 h -0.85744 l -2.14362,0.13654 -1.14263,-0.12395 c -8.42534,-0.57505 -17.65967,-3.12735 -24.57422,-8.07304 -9.59827,-6.86097 -14.50016,-17.43878 -15.00717,-29.00871 l -0.13747,-1.56204 c -0.0513,-4.42144 0.64448,-10.14629 2.04995,-14.34498 1.29176,-3.85292 3.00339,-7.41924 5.50629,-10.65144 2.47028,-3.19166 4.39628,-4.26206 6.40941,-8.23754 l 4.20614,-8.09541 c 0.32388,-0.52845 1.33557,-2.49684 1.73447,-2.73684 0.40589,-0.24604 0.78009,0.0895 1.09604,0.32528 0.50887,0.37792 1.20602,1.00982 1.85702,1.07087 0.75306,0.0694 1.30341,-0.52985 1.70884,-1.07367 0.24838,-0.33086 0.50887,-0.8677 1.01169,-0.68596 0.31595,0.11371 0.88308,0.71718 1.13705,0.96976 0.76611,0.76005 2.44745,2.67159 3.42885,2.9018 0.77869,0.1836 1.46185,-0.29964 1.99869,-0.39331 0.80152,-0.13933 1.33463,0.77124 1.73633,1.32671 l 1.7559,2.55603 1.89057,2.55649 2.81,4.26114 c 2.55742,3.8133 4.8907,7.01754 6.1778,11.50422 0.76891,2.67859 0.80712,4.50952 0.7759,7.24309 -0.0186,1.50286 -0.59975,4.57615 -0.9404,6.10697 -1.07134,4.825 -2.70841,9.53117 -3.07329,14.48711 l -0.12955,1.41992 v 1.9889 c 0.009,5.35717 2.52155,11.71998 5.38467,16.19082 l 3.74201,5.25512 2.01733,2.55556 c -2.36031,1.03033 -7.83911,2.09981 -10.42916,2.13056 z m -14.71638,-82.37493 -0.14306,0.14213 v -0.14213 z m 28.86098,1.9889 -0.14353,0.14213 v -0.14213 z m 0.28519,0.14167 -0.14259,0.14213 v -0.14213 z m 0.28566,0.14213 -0.14306,0.14213 v -0.14213 z m 0.28566,0.14213 -0.14306,0.14213 v -0.14213 z m 0.28613,0.14213 -0.14306,0.14213 v -0.14213 z m 0.28566,0.14166 -0.14306,0.14214 v -0.14214 z m 0.28566,0.14214 -0.14306,0.14213 v -0.14213 z m 0.28613,0.14213 -0.14307,0.14213 v -0.14213 z m 0.28566,0.14213 -0.14307,0.14213 v -0.14213 z m 8.00081,5.06452 2.91764,2.43627 c 0.23114,0.0624 0.55035,0.0256 0.79687,0 2.22889,0.0704 3.87948,1.76102 5.08223,3.43537 2.510359,3.49223 3.795129,7.53155 4.828729,11.64589 0.52751,2.09655 0.88354,4.24343 1.11328,6.39124 0.0699,0.6496 0.32713,1.99263 0.12023,2.55649 -0.13887,-1.6408 -1.3803,-5.18382 -1.9931,-6.81716 -2.55183,-6.80505 -7.016609,-13.56349 -12.436689,-18.43929 -1.58721,-1.4269 -3.23593,-2.78763 -5.00022,-3.99784 -0.77729,-0.53264 -2.44046,-1.43436 -3.00059,-1.99123 2.52946,1.08299 5.40377,3.08587 7.57162,4.78026 z m -26.57477,-2.50803 c 0.50748,0.19153 1.09138,0.27681 1.42876,0.70879 h -2.85753 c -0.69434,0.01 -2.12078,0.31968 -2.6893,0 -0.41847,-0.23859 -0.92735,-1.13192 -1.16874,-1.56111 1.32905,0.0611 4.07846,0.3961 5.28681,0.85232 z m 2.28621,0 -0.1426,0.14213 v -0.14213 z m -0.1426,1.42038 c 2.18556,0.003 3.66558,0.8635 5.572,1.81089 3.4214,1.70138 6.69321,3.79233 9.57218,6.30595 1.60445,1.40314 2.50011,2.3193 3.86922,3.95497 0.31456,0.37654 1.08579,1.2228 1.10443,1.70418 0.0126,0.39051 -0.45295,1.08812 -0.66732,1.42038 -0.73022,1.12633 -1.52895,2.23681 -2.39013,3.26668 -3.06909,3.67444 -5.63211,5.46249 -9.05957,8.54557 -0.88307,0.79407 -2.899,3.15204 -3.57191,3.52671 0.30989,-1.6888 0.71112,-3.54256 0.71438,-5.25512 v -2.84029 c -0.005,-3.10032 -1.28197,-7.08558 -2.7592,-9.80005 l -5.62466,-8.8056 c -0.53031,-0.83507 -1.8985,-2.79788 -2.18882,-3.55047 z m 10.71528,3.69261 -0.14306,0.14213 v -0.14213 z m 0.42826,0.2838 -0.14306,0.14213 v -0.14213 z m 10.14443,11.07783 c 1.78898,2.6674 3.51319,5.77191 4.57195,8.80559 -2.1315,0.56107 -3.2089,0.68037 -5.28587,1.74146 -4.61809,2.35751 -8.14854,6.86795 -9.71151,11.75074 -3.0458,9.51765 1.72887,20.70872 11.56807,23.92833 2.03457,0.66639 3.32073,0.78475 5.4294,0.78475 -0.71578,1.21674 -2.59191,2.80861 -3.71498,3.75086 -2.73451,2.29367 -5.33201,3.90278 -8.5726,5.38281 -1.10582,0.50421 -2.23728,1.0993 -3.42885,1.37611 l -2.22563,-2.69863 c -1.84444,-2.35005 -3.74014,-5.02771 -5.13536,-7.66902 -3.82169,-7.24774 -4.59292,-14.37061 -2.65854,-22.29825 0.54848,-2.24707 0.90311,-5.04589 2.21025,-6.9593 4.55332,-6.66245 12.46419,-10.08664 16.66754,-17.89545 z"
   style="fill:#93d200;stroke:#000000;stroke-width:0.22293597;stroke-opacity:0" />
</svg>