<?xml version="1.0" encoding="UTF-8" standalone="no"?>
<!-- Created with Inkscape (http://www.inkscape.org/) -->

<svg
   xmlns:dc="http://purl.org/dc/elements/1.1/"
   xmlns:cc="http://creativecommons.org/ns#"
   xmlns:rdf="http://www.w3.org/1999/02/22-rdf-syntax-ns#"
   xmlns:svg="http://www.w3.org/2000/svg"
   xmlns="http://www.w3.org/2000/svg"
   xmlns:sodipodi="http://sodipodi.sourceforge.net/DTD/sodipodi-0.dtd"
   xmlns:inkscape="http://www.inkscape.org/namespaces/inkscape"
   width="100"
   height="100"
   viewBox="0 0 296.458 296.458"
   version="1.1"
   id="svg8"
   inkscape:version="0.92.3 (2405546, 2018-03-11)"
   sodipodi:docname="choice.svg">
  <defs
     id="defs2" />
  <sodipodi:namedview
     id="base"
     pagecolor="#ffffff"
     bordercolor="#666666"
     borderopacity="1.0"
     inkscape:pageopacity="0.0"
     inkscape:pageshadow="2"
     inkscape:zoom="0.5"
     inkscape:cx="353.71429"
     inkscape:cy="-560"
     inkscape:document-units="px"
     inkscape:current-layer="layer1"
     showgrid="false"
     inkscape:window-width="1920"
     inkscape:window-height="1031"
     inkscape:window-x="0"
     inkscape:window-y="0"
     inkscape:window-maximized="1"
     units="px"
     scale-x="2.96458" />
  <metadata
     id="metadata5">
    <rdf:RDF>
      <cc:Work
         rdf:about="">
        <dc:format>image/svg+xml</dc:format>
        <dc:type
           rdf:resource="http://purl.org/dc/dcmitype/StillImage" />
        <dc:title></dc:title>
      </cc:Work>
    </rdf:RDF>
  </metadata>
  <g
     inkscape:label="Layer 1"
     inkscape:groupmode="layer"
     id="layer1"
     transform="translate(0,-270.54169)">
    <ellipse
       id="path10"
       cx="147.17999"
       cy="427.62952"
       style="fill:#ff00ff;stroke:#ff0000;stroke-width:0.27488938"
       rx="102.57796"
       ry="104.69954" />
    <g
       aria-label="Sawtooth"
       transform="scale(0.98981627,1.0102885)"
       style="font-style:normal;font-weight:normal;font-size:20.19869041px;line-height:1.25;font-family:sans-serif;letter-spacing:0px;word-spacing:0px;fill:#000000;fill-opacity:1;stroke:none;stroke-width:0.50496715"
       id="text14">
      <path
         d="m 113.55186,287.33543 v 1.94294 q -1.13421,-0.54244 -2.1402,-0.80873 -1.00599,-0.26629 -1.94294,-0.26629 -1.62733,0 -2.51497,0.6312 -0.87778,0.63121 -0.87778,1.795 0,0.97641 0.5819,1.4794 0.59176,0.49313 2.22896,0.79888 l 1.20324,0.24656 q 2.22896,0.42409 3.28426,1.49912 1.06516,1.06517 1.06516,2.86017 0,2.14019 -1.43994,3.24481 -1.43008,1.10461 -4.20149,1.10461 -1.04544,0 -2.22895,-0.2367 -1.17366,-0.2367 -2.43608,-0.70025 v -2.05143 q 1.21311,0.68053 2.3769,1.02572 1.16379,0.34519 2.28813,0.34519 1.70624,0 2.63333,-0.67066 0.92709,-0.67066 0.92709,-1.91335 0,-1.08489 -0.67066,-1.69638 -0.6608,-0.61148 -2.17965,-0.91722 l -1.2131,-0.2367 q -2.22896,-0.44382 -3.22509,-1.39064 -0.99612,-0.94681 -0.99612,-2.63332 0,-1.95281 1.3709,-3.07715 1.38077,-1.12434 3.79712,-1.12434 1.03558,0 2.11061,0.18739 1.07503,0.18739 2.19937,0.56217 z"
         style="stroke-width:0.50496715"
         id="path62" />
      <path
         d="m 122.48741,296.02442 q -2.19937,0 -3.04756,0.50299 -0.84818,0.503 -0.84818,1.7161 0,0.96654 0.63121,1.53858 0.64107,0.56217 1.73582,0.56217 1.50898,0 2.41635,-1.06517 0.91722,-1.07503 0.91722,-2.8503 v -0.40437 z m 3.61959,-0.74956 v 6.30223 h -1.81473 v -1.67665 q -0.62134,1.00599 -1.54843,1.48926 -0.92709,0.4734 -2.26841,0.4734 -1.69637,0 -2.70236,-0.94681 -0.99613,-0.95668 -0.99613,-2.55442 0,-1.86404 1.24269,-2.81086 1.25256,-0.94681 3.72808,-0.94681 h 2.54456 v -0.17753 q 0,-1.25255 -0.82846,-1.93308 -0.8186,-0.69038 -2.30786,-0.69038 -0.94681,0 -1.84431,0.22684 -0.8975,0.22684 -1.72596,0.68052 v -1.67665 q 0.99612,-0.38464 1.93307,-0.57203 0.93696,-0.19725 1.82459,-0.19725 2.39663,0 3.58014,1.24269 1.18352,1.24269 1.18352,3.76753 z"
         style="stroke-width:0.50496715"
         id="path64" />
      <path
         d="m 128.7995,290.53093 h 1.81473 l 2.2684,8.61995 2.25855,-8.61995 h 2.14019 l 2.26841,8.61995 2.25854,-8.61995 h 1.81473 l -2.88975,11.04616 h -2.1402 l -2.37689,-9.05391 -2.38676,9.05391 h -2.1402 z"
         style="stroke-width:0.50496715"
         id="path66" />
      <path
         d="m 148.17959,287.39461 v 3.13632 h 3.73794 v 1.41036 h -3.73794 v 5.99648 q 0,1.35118 0.36492,1.73583 0.37478,0.38464 1.50898,0.38464 h 1.86404 v 1.51885 h -1.86404 q -2.10074,0 -2.89961,-0.77915 -0.79888,-0.78901 -0.79888,-2.86017 v -5.99648 h -1.33145 v -1.41036 h 1.33145 v -3.13632 z"
         style="stroke-width:0.50496715"
         id="path68" />
      <path
         d="m 158.59454,291.80321 q -1.45967,0 -2.30786,1.14407 -0.84819,1.1342 -0.84819,3.11659 0,1.98239 0.83833,3.12646 0.84819,1.1342 2.31772,1.1342 1.44981,0 2.298,-1.14406 0.84818,-1.14407 0.84818,-3.1166 0,-1.96267 -0.84818,-3.10673 -0.84819,-1.15393 -2.298,-1.15393 z m 0,-1.53857 q 2.36703,0 3.71822,1.53857 1.35118,1.53857 1.35118,4.26066 0,2.71223 -1.35118,4.26066 -1.35119,1.53857 -3.71822,1.53857 -2.3769,0 -3.72808,-1.53857 -1.34132,-1.54843 -1.34132,-4.26066 0,-2.72209 1.34132,-4.26066 1.35118,-1.53857 3.72808,-1.53857 z"
         style="stroke-width:0.50496715"
         id="path70" />
      <path
         d="m 170.94257,291.80321 q -1.45967,0 -2.30786,1.14407 -0.84819,1.1342 -0.84819,3.11659 0,1.98239 0.83833,3.12646 0.84818,1.1342 2.31772,1.1342 1.4498,0 2.29799,-1.14406 0.84819,-1.14407 0.84819,-3.1166 0,-1.96267 -0.84819,-3.10673 -0.84819,-1.15393 -2.29799,-1.15393 z m 0,-1.53857 q 2.36703,0 3.71821,1.53857 1.35118,1.53857 1.35118,4.26066 0,2.71223 -1.35118,4.26066 -1.35118,1.53857 -3.71821,1.53857 -2.3769,0 -3.72808,-1.53857 -1.34132,-1.54843 -1.34132,-4.26066 0,-2.72209 1.34132,-4.26066 1.35118,-1.53857 3.72808,-1.53857 z"
         style="stroke-width:0.50496715"
         id="path72" />
      <path
         d="m 180.80521,287.39461 v 3.13632 h 3.73794 v 1.41036 h -3.73794 v 5.99648 q 0,1.35118 0.36492,1.73583 0.37478,0.38464 1.50898,0.38464 h 1.86404 v 1.51885 h -1.86404 q -2.10074,0 -2.89961,-0.77915 -0.79888,-0.78901 -0.79888,-2.86017 v -5.99648 h -1.33145 v -1.41036 h 1.33145 v -3.13632 z"
         style="stroke-width:0.50496715"
         id="path74" />
      <path
         d="m 196.12189,294.90994 v 6.66715 h -1.81472 v -6.60797 q 0,-1.56816 -0.61149,-2.34731 -0.61148,-0.77915 -1.83445,-0.77915 -1.46953,0 -2.31772,0.93695 -0.84818,0.93695 -0.84818,2.55443 v 6.24305 h -1.82459 v -15.34627 h 1.82459 v 6.01621 q 0.65093,-0.99613 1.5287,-1.48926 0.88764,-0.49313 2.04157,-0.49313 1.90349,0 2.87989,1.18351 0.9764,1.17366 0.9764,3.46179 z"
         style="stroke-width:0.50496715"
         id="path76" />
    </g>
    <g
       aria-label="Sine"
       transform="scale(0.98981627,1.0102885)"
       style="font-style:normal;font-weight:normal;font-size:20.19869041px;line-height:1.25;font-family:sans-serif;letter-spacing:0px;word-spacing:0px;fill:#000000;fill-opacity:1;stroke:none;stroke-width:0.50496715"
       id="text18">
      <path
         d="m 16.598122,521.64067 v 1.94294 q -1.134204,-0.54245 -2.140193,-0.80874 -1.00599,-0.26629 -1.942941,-0.26629 -1.627335,0 -2.514973,0.63121 -0.8777753,0.63121 -0.8777753,1.795 0,0.9764 0.5818958,1.4794 0.5917585,0.49313 2.2289575,0.79887 l 1.203242,0.24657 q 2.228957,0.42409 3.28426,1.49912 1.065165,1.06516 1.065165,2.86017 0,2.14019 -1.439946,3.2448 -1.430083,1.10462 -4.201485,1.10462 -1.04544,0 -2.2289573,-0.2367 -1.1736543,-0.23671 -2.4360725,-0.70025 v -2.05143 q 1.213105,0.68052 2.3768967,1.02572 1.1637921,0.34519 2.2881331,0.34519 1.706237,0 2.633325,-0.67066 0.927088,-0.67066 0.927088,-1.91335 0,-1.0849 -0.670659,-1.69638 -0.660797,-0.61148 -2.179644,-0.91722 l -1.213105,-0.23671 q -2.228957,-0.44382 -3.2250838,-1.39063 -0.9961268,-0.94681 -0.9961268,-2.63333 0,-1.9528 1.3709072,-3.07714 1.3807698,-1.12434 3.7971174,-1.12434 1.035577,0 2.110605,0.18739 1.075028,0.18739 2.199369,0.56217 z"
         style="stroke-width:0.50496715"
         id="path96" />
      <path
         d="m 20.513591,524.83617 h 1.814726 v 11.04615 h -1.814726 z m 0,-4.30012 h 1.814726 v 2.298 h -1.814726 z"
         style="stroke-width:0.50496715"
         id="path98" />
      <path
         d="m 35.29769,529.21518 v 6.66714 h -1.814726 v -6.60797 q 0,-1.56816 -0.611484,-2.3473 -0.611483,-0.77915 -1.834451,-0.77915 -1.469534,0 -2.317721,0.93695 -0.848187,0.93695 -0.848187,2.55442 v 6.24305 h -1.824589 v -11.04615 h 1.824589 v 1.7161 q 0.650934,-0.99613 1.52871,-1.48926 0.887637,-0.49314 2.041566,-0.49314 1.90349,0 2.879892,1.18352 0.976401,1.17366 0.976401,3.46179 z"
         style="stroke-width:0.50496715"
         id="path100" />
      <path
         d="m 48.385416,529.90556 v 0.88764 h -8.343795 q 0.118351,1.8739 1.124341,2.86017 1.015852,0.9764 2.820715,0.9764 1.04544,0 2.021842,-0.25643 0.986264,-0.25643 1.952803,-0.76929 v 1.7161 q -0.976401,0.41423 -2.002116,0.63121 -1.025715,0.21698 -2.081018,0.21698 -2.643188,0 -4.191622,-1.53857 -1.538572,-1.53857 -1.538572,-4.16204 0,-2.71222 1.45967,-4.30011 1.469534,-1.59775 3.95492,-1.59775 2.228957,0 3.520963,1.43995 1.301869,1.43008 1.301869,3.89574 z m -1.814726,-0.53258 q -0.01973,-1.48926 -0.838325,-2.3769 -0.808737,-0.88763 -2.150056,-0.88763 -1.518847,0 -2.436072,0.85805 -0.907363,0.85805 -1.04544,2.41634 z"
         style="stroke-width:0.50496715"
         id="path102" />
    </g>
    <g
       aria-label="Triangle"
       transform="scale(0.98981627,1.0102885)"
       style="font-style:normal;font-weight:normal;font-size:20.19869041px;line-height:1.25;font-family:sans-serif;letter-spacing:0px;word-spacing:0px;fill:#000000;fill-opacity:1;stroke:none;stroke-width:0.50496715"
       id="text22">
      <path
         d="m 240.03427,522.1671 h 12.45652 v 1.67665 h -5.2272 v 13.04828 h -2.00212 v -13.04828 h -5.2272 z"
         style="stroke-width:0.50496715"
         id="path79" />
      <path
         d="m 257.78702,527.54224 q -0.30574,-0.17752 -0.67066,-0.25642 -0.35505,-0.0888 -0.78901,-0.0888 -1.53857,0 -2.36703,1.00599 -0.8186,0.99613 -0.8186,2.87003 v 5.81896 h -1.82459 v -11.04616 h 1.82459 v 1.7161 q 0.57203,-1.00599 1.48926,-1.48926 0.91722,-0.49313 2.22896,-0.49313 0.18739,0 0.41423,0.0296 0.22684,0.0197 0.50299,0.069 z"
         style="stroke-width:0.50496715"
         id="path81" />
      <path
         d="m 259.71024,525.84587 h 1.81473 v 11.04616 h -1.81473 z m 0,-4.30011 h 1.81473 v 2.29799 h -1.81473 z"
         style="stroke-width:0.50496715"
         id="path83" />
      <path
         d="m 270.3323,531.33936 q -2.19937,0 -3.04755,0.503 -0.84819,0.50299 -0.84819,1.7161 0,0.96653 0.63121,1.53857 0.64107,0.56217 1.73582,0.56217 1.50899,0 2.41635,-1.06517 0.91723,-1.07502 0.91723,-2.8503 v -0.40437 z m 3.61959,-0.74956 v 6.30223 h -1.81472 v -1.67665 q -0.62135,1.00599 -1.54844,1.48926 -0.92709,0.47341 -2.2684,0.47341 -1.69638,0 -2.70237,-0.94682 -0.99613,-0.95667 -0.99613,-2.55442 0,-1.86404 1.2427,-2.81086 1.25255,-0.94681 3.72808,-0.94681 h 2.54456 v -0.17753 q 0,-1.25255 -0.82846,-1.93307 -0.8186,-0.69039 -2.30786,-0.69039 -0.94682,0 -1.84432,0.22684 -0.8975,0.22684 -1.72596,0.68052 v -1.67665 q 0.99613,-0.38464 1.93308,-0.57203 0.93695,-0.19725 1.82459,-0.19725 2.39662,0 3.58014,1.24269 1.18351,1.24269 1.18351,3.76753 z"
         style="stroke-width:0.50496715"
         id="path85" />
      <path
         d="m 286.88182,530.22488 v 6.66715 h -1.81473 v -6.60797 q 0,-1.56816 -0.61148,-2.34731 -0.61149,-0.77915 -1.83445,-0.77915 -1.46954,0 -2.31773,0.93695 -0.84818,0.93695 -0.84818,2.55443 v 6.24305 h -1.82459 v -11.04616 h 1.82459 v 1.7161 q 0.65093,-0.99613 1.52871,-1.48926 0.88763,-0.49313 2.04156,-0.49313 1.90349,0 2.8799,1.18352 0.9764,1.17365 0.9764,3.46178 z"
         style="stroke-width:0.50496715"
         id="path87" />
      <path
         d="m 297.7899,531.24074 q 0,-1.97253 -0.8186,-3.05742 -0.80874,-1.08489 -2.27827,-1.08489 -1.45967,0 -2.27827,1.08489 -0.80874,1.08489 -0.80874,3.05742 0,1.96266 0.80874,3.04755 0.8186,1.08489 2.27827,1.08489 1.46953,0 2.27827,-1.08489 0.8186,-1.08489 0.8186,-3.04755 z m 1.81472,4.28038 q 0,2.82072 -1.25255,4.19162 -1.25256,1.38077 -3.83657,1.38077 -0.95668,0 -1.80486,-0.14794 -0.84819,-0.13807 -1.64706,-0.43395 v -1.76541 q 0.79887,0.43395 1.57802,0.64107 0.77915,0.20711 1.58788,0.20711 1.78514,0 2.67278,-0.93695 0.88764,-0.92709 0.88764,-2.81085 v -0.8975 q -0.56217,0.9764 -1.43995,1.45967 -0.87777,0.48327 -2.10074,0.48327 -2.0317,0 -3.2744,-1.54844 -1.24269,-1.54843 -1.24269,-4.10285 0,-2.56429 1.24269,-4.11273 1.2427,-1.54843 3.2744,-1.54843 1.22297,0 2.10074,0.48327 0.87778,0.48327 1.43995,1.45967 v -1.67665 h 1.81472 z"
         style="stroke-width:0.50496715"
         id="path89" />
      <path
         d="m 303.34257,521.54576 h 1.81472 v 15.34627 h -1.81472 z"
         style="stroke-width:0.50496715"
         id="path91" />
      <path
         d="m 318.39295,530.91527 v 0.88764 h -8.34379 q 0.11835,1.8739 1.12434,2.86016 1.01585,0.9764 2.82072,0.9764 1.04544,0 2.02184,-0.25643 0.98626,-0.25642 1.9528,-0.76928 v 1.7161 q -0.9764,0.41423 -2.00212,0.63121 -1.02571,0.21698 -2.08101,0.21698 -2.64319,0 -4.19163,-1.53858 -1.53857,-1.53857 -1.53857,-4.16203 0,-2.71223 1.45967,-4.30011 1.46954,-1.59775 3.95492,-1.59775 2.22896,0 3.52097,1.43994 1.30186,1.43009 1.30186,3.89575 z m -1.81472,-0.53258 q -0.0197,-1.48926 -0.83833,-2.3769 -0.80873,-0.88764 -2.15005,-0.88764 -1.51885,0 -2.43607,0.85805 -0.90737,0.85805 -1.04544,2.41635 z"
         style="stroke-width:0.50496715"
         id="path93" />
    </g>
  </g>
</svg>
